<svg id="svg" version="1.1" xmlns="http://www.w3.org/2000/svg" xmlns:xlink="http://www.w3.org/1999/xlink" width="400" height="400" viewBox="0, 0, 400,400"><g id="svgg"><path id="path0" d="M49.600 174.800 L 49.600 200.000 99.600 200.000 L 149.600 200.000 149.600 174.800 L 149.600 149.600 99.600 149.600 L 49.600 149.600 49.600 174.800 M249.600 174.800 L 249.600 200.000 299.600 200.000 L 349.600 200.000 349.600 174.800 L 349.600 149.600 299.600 149.600 L 249.600 149.600 249.600 174.800 M149.200 174.800 L 149.200 199.600 99.600 199.600 L 50.000 199.600 50.000 174.800 L 50.000 150.000 99.600 150.000 L 149.200 150.000 149.200 174.800 M349.200 174.800 L 349.200 199.600 299.600 199.600 L 250.000 199.600 250.000 174.800 L 250.000 150.000 299.600 150.000 L 349.200 150.000 349.200 174.800 M100.000 274.800 L 100.000 300.000 74.800 300.000 L 49.600 300.000 49.600 350.000 L 49.600 400.000 199.600 400.000 L 349.600 400.000 349.600 350.000 L 349.600 300.000 324.800 300.000 L 300.000 300.000 300.000 274.800 L 300.000 249.600 200.000 249.600 L 100.000 249.600 100.000 274.800 " stroke="none" fill="#2c240c" fill-rule="evenodd"></path><path id="path1" d="M0.000 200.000 L 0.000 400.000 24.600 400.000 L 49.200 400.000 49.200 349.800 L 49.200 299.600 74.400 299.600 L 99.600 299.600 99.600 274.800 L 99.600 250.000 74.880 250.000 C 56.187 250.000,50.043 249.883,49.680 249.520 C 49.312 249.152,49.200 237.413,49.200 199.120 L 49.200 149.200 99.600 149.200 L 150.000 149.200 150.000 199.200 L 150.000 249.200 199.800 249.200 L 249.600 249.200 249.600 225.033 C 249.600 211.741,249.491 200.581,249.357 200.233 C 249.139 199.665,246.599 199.600,224.757 199.600 L 200.400 199.600 200.400 174.800 L 200.400 150.000 224.800 150.000 C 240.800 150.000,249.200 149.862,249.200 149.600 C 249.200 149.335,266.267 149.200,299.600 149.200 L 350.000 149.200 350.000 199.120 C 350.000 237.413,349.888 249.152,349.520 249.520 C 349.157 249.883,343.102 250.000,324.720 250.000 L 300.400 250.000 300.400 274.800 L 300.400 299.600 325.200 299.600 L 350.000 299.600 350.000 349.800 L 350.000 400.000 375.000 400.000 L 400.000 400.000 400.000 200.000 L 400.000 0.000 200.000 0.000 L 0.000 0.000 0.000 200.000 " stroke="none" fill="#cc946c" fill-rule="evenodd"></path><path id="path2" d="M49.200 199.120 C 49.200 237.413,49.312 249.152,49.680 249.520 C 50.043 249.883,56.187 250.000,74.880 250.000 L 99.600 250.000 99.600 274.800 L 99.600 299.600 74.400 299.600 L 49.200 299.600 49.298 349.900 L 49.397 400.200 49.500 350.100 L 49.603 300.000 74.802 300.000 L 100.000 300.000 100.000 274.800 L 100.000 249.600 200.000 249.600 L 300.000 249.600 300.000 274.800 L 300.000 300.000 324.798 300.000 L 349.597 300.000 349.700 350.100 L 349.803 400.200 349.902 349.900 L 350.000 299.600 325.200 299.600 L 300.400 299.600 300.400 274.800 L 300.400 250.000 324.720 250.000 C 343.102 250.000,349.157 249.883,349.520 249.520 C 349.888 249.152,350.000 237.413,350.000 199.120 L 350.000 149.200 299.548 149.200 L 249.097 149.200 249.395 199.200 L 249.694 249.200 199.847 249.200 L 150.000 249.200 150.000 199.200 L 150.000 149.200 99.600 149.200 L 49.200 149.200 49.200 199.120 M149.600 174.800 L 149.600 200.000 99.600 200.000 L 49.600 200.000 49.600 174.800 L 49.600 149.600 99.600 149.600 L 149.600 149.600 149.600 174.800 M349.600 174.800 L 349.600 200.000 299.600 200.000 L 249.600 200.000 249.600 174.800 L 249.600 149.600 299.600 149.600 L 349.600 149.600 349.600 174.800 " stroke="none" fill="#c48c5c" fill-rule="evenodd"></path><path id="path3" d="M50.000 174.800 L 50.000 199.600 99.600 199.600 L 149.200 199.600 149.200 174.800 L 149.200 150.000 99.600 150.000 L 50.000 150.000 50.000 174.800 M250.000 174.800 L 250.000 199.600 299.600 199.600 L 349.200 199.600 349.200 174.800 L 349.200 150.000 299.600 150.000 L 250.000 150.000 250.000 174.800 " stroke="none" fill="#110c06" fill-rule="evenodd"></path><path id="path4" d="M200.400 174.800 L 200.400 199.600 224.800 199.600 L 249.200 199.600 249.200 174.800 L 249.200 150.000 224.800 150.000 L 200.400 150.000 200.400 174.800 " stroke="none" fill="#cc9c74" fill-rule="evenodd"></path><path id="path5" d="" stroke="none" fill="#d09838" fill-rule="evenodd"></path><path id="path6" d="" stroke="none" fill="#d09838" fill-rule="evenodd"></path><path id="path7" d="" stroke="none" fill="#d09838" fill-rule="evenodd"></path><path id="path8" d="" stroke="none" fill="#d09838" fill-rule="evenodd"></path></g></svg>